Coordinates
version=1
nRows=7
nColumns=40
inDegrees=yes

Units are S.I. units (second, meters, Newtons, ...)
Angles are in degrees.

endheader
time	pelvis_tilt	pelvis_list	pelvis_rotation	pelvis_tx	pelvis_ty	pelvis_tz	hip_flexion_r	hip_adduction_r	hip_rotation_r	knee_angle_r	knee_angle_r_beta	ankle_angle_r	subtalar_angle_r	mtp_angle_r	hip_flexion_l	hip_adduction_l	hip_rotation_l	knee_angle_l	knee_angle_l_beta	ankle_angle_l	subtalar_angle_l	mtp_angle_l	lumbar_extension	lumbar_bending	lumbar_rotation	arm_flex_r	arm_add_r	arm_rot_r	elbow_flex_r	pro_sup_r	wrist_flex_r	wrist_dev_r	arm_flex_l	arm_add_l	arm_rot_l	elbow_flex_l	pro_sup_l	wrist_flex_l	wrist_dev_l
      0.00000000	     -2.47284353	     -2.69991580	      3.09200983	     -0.88643383	      0.89292866	      1.02949011	     26.59911206	     -3.68094017	    -22.25417606	    -22.99919138	     -0.40141161	      3.59221033	     -6.68954164	      3.17676980	      4.79794839	      2.33783259	     12.40273711	    -26.14226233	     -0.45626855	     14.74772767	     -0.04995014	     -4.11384586	     -3.49390360	      2.33458841	    -10.36552277	     -2.70879202	     -7.18411688	    -19.83183863	     22.39297664	     89.95437384	      0.00000000	      0.00000000	     10.54174802	     13.39652479	      8.71724147	     39.98526606	     89.95437384	      0.00000000	      0.00000000
      0.01000000	     -2.71174129	     -2.53304315	      3.17402248	     -0.88041639	      0.89196319	      1.03018349	     27.07159667	     -3.82242559	    -22.46929777	    -21.95600166	     -0.38320452	      3.66751260	     -6.35203035	      3.24318212	      4.62041231	      2.23542299	     12.44464688	    -26.15254940	     -0.45644809	     14.96991899	     -0.08629250	     -4.15477564	     -3.22632431	      2.18313668	    -10.25824237	     -2.71331809	     -7.22324252	    -19.81447715	     22.27505937	     89.95437384	      0.00000000	      0.00000000	     10.77135578	     13.40590186	      8.65306975	     40.16666034	     89.95437384	      0.00000000	      0.00000000
      0.02000000	     -2.89784177	     -2.57850045	      3.41652734	     -0.87436824	      0.89117251	      1.03096014	     27.28950024	     -3.62897919	    -22.17354887	    -20.72106999	     -0.36165090	      3.69581306	     -5.37380165	      3.27067656	      4.49823715	      2.37058070	     12.17560195	    -26.34442138	     -0.45979689	     15.19580731	     -0.14875304	     -4.24018282	     -3.01761405	      2.24116246	    -10.35060185	     -2.67687149	     -7.24157920	    -19.92144160	     22.19246437	     89.95437384	      0.00000000	      0.00000000	     10.97697939	     13.43339910	      8.65345057	     40.34542355	     89.95437384	      0.00000000	      0.00000000
      0.03000000	     -2.95285887	     -2.73371160	      3.66834846	     -0.86826493	      0.89049430	      1.03187563	     27.34160847	     -3.34196844	    -22.03948637	    -19.62486349	     -0.34251848	      3.92519324	     -4.10065768	      3.24835098	      4.28200354	      2.67881520	     11.99660371	    -26.58713376	     -0.46403302	     15.33307101	     -0.28655415	     -4.37243161	     -2.97693057	      2.44134820	    -10.43637196	     -2.60959686	     -7.25571882	    -20.07107053	     22.13777683	     89.95437384	      0.00000000	      0.00000000	     11.12910690	     13.45333436	      8.69027122	     40.64960346	     89.95437384	      0.00000000	      0.00000000
      0.04000000	     -3.09554474	     -2.60204470	      3.83613492	     -0.86211767	      0.88964890	      1.03268430	     27.73581325	     -3.45417708	    -22.02177071	    -19.19036545	     -0.33493506	      4.08095198	     -3.78628283	      3.19690151	      4.06864404	      2.67899049	     12.04918718	    -26.72049396	     -0.46636060	     15.32041390	     -0.32254734	     -4.37071245	     -2.83694793	      2.31826950	    -10.42152695	     -2.63600824	     -7.29244804	    -20.09201057	     22.19512709	     89.95437384	      0.00000000	      0.00000000	     11.28914680	     13.43786492	      8.72629136	     40.86935877	     89.95437384	      0.00000000	      0.00000000
      0.05000000	     -2.78340186	     -2.83080941	      4.09302290	     -0.85514878	      0.88957304	      1.03367599	     27.29395511	     -3.18618454	    -22.20394796	    -18.52124568	     -0.32325672	      4.59709031	     -1.17267537	      2.98019474	      3.33462614	      3.25983780	     12.38404882	    -26.87679491	     -0.46908856	     15.15668925	     -1.49691941	     -5.06706402	     -3.11826585	      2.63164042	    -10.51197937	     -2.57723427	     -7.27922999	    -20.44262277	     22.17535486	     89.95437384	      0.00000000	      0.00000000	     11.37475623	     13.37079477	      8.96142919	     41.12758151	     89.95437384	      0.00000000	      0.00000000
      0.06000000	     -2.96338093	     -2.66546871	      4.29107467	     -0.84872883	      0.88869040	      1.03449897	     27.61256895	     -3.31594071	    -21.88266297	    -18.27440453	     -0.31894853	      4.68291619	     -0.96554788	      2.91200194	      3.14106706	      3.18766359	     12.27776281	    -26.99966004	     -0.47123296	     15.18720976	     -1.53881951	     -5.07312186	     -2.89832967	      2.48932937	    -10.56651575	     -2.61687359	     -7.31097395	    -20.43924476	     22.23048570	     89.95437384	      0.00000000	      0.00000000	     11.41657031	     13.38180612	      8.99573794	     41.31259515	     89.95437384	      0.00000000	      0.00000000
